<svg height="48" viewBox="0 0 512 512" width="48" xmlns="http://www.w3.org/2000/svg"><g id="flat"><g fill="#c75b93"><path d="m248 64h16v48h-16z"/><path d="m182.178 69.093h16v56h-16z" transform="matrix(.924 -.383 .383 .924 -22.679 80.168)"/><path d="m89.093 162.178h16v56h-16z" transform="matrix(.383 -.924 .924 .383 -115.765 207.103)"/><path d="m69.093 313.821h56v16h-56z" transform="matrix(.924 -.383 .383 .924 -115.766 61.654)"/><path d="m162.178 406.907h56v16h-56z" transform="matrix(.383 -.924 .924 .383 -265.924 431.83)"/><path d="m313.821 386.907h16v56h-16z" transform="matrix(.924 -.383 .383 .924 -134.28 154.738)"/><path d="m406.907 293.822h16v56h-16z" transform="matrix(.383 -.924 .924 .383 -41.195 581.991)"/><path d="m386.907 182.178h56v16h-56z" transform="matrix(.924 -.383 .383 .924 -41.195 173.256)"/><path d="m293.822 89.093h56v16h-56z" transform="matrix(.383 -.924 .924 .383 108.963 357.261)"/><path d="m129.206 113.206h16v48h-16z" transform="matrix(.707 -.707 .707 .707 -56.833 137.206)"/><path d="m64 248h48v16h-48z"/><path d="m113.206 366.794h48v16h-48z" transform="matrix(.707 -.707 .707 .707 -224.833 206.794)"/><path d="m248 400h16v48h-16z"/><path d="m366.794 350.794h16v48h-16z" transform="matrix(.707 -.707 .707 .707 -155.245 374.794)"/><path d="m400 248h48v16h-48z"/><path d="m350.794 129.206h48v16h-48z" transform="matrix(.707 -.707 .707 .707 12.755 305.206)"/></g><circle cx="256" cy="256" fill="#d26398" r="152"/><circle cx="256" cy="256" fill="#e46ca5" r="112"/><circle cx="288" cy="224" fill="#007af6" r="24"/><circle cx="200" cy="256" fill="#007af6" r="16"/><circle cx="272" cy="320" fill="#007af6" r="16"/><circle cx="256" cy="48" fill="#007af6" r="24"/><circle cx="175.996" cy="64.004" fill="#007af6" r="16"/><circle cx="63.833" cy="176.402" fill="#007af6" r="16"/><circle cx="63.833" cy="335.598" fill="#007af6" r="16"/><circle cx="176.402" cy="448.167" fill="#007af6" r="16"/><circle cx="335.598" cy="448.167" fill="#007af6" r="16"/><circle cx="448.167" cy="335.598" fill="#007af6" r="16"/><circle cx="448.167" cy="176.402" fill="#007af6" r="16"/><circle cx="335.598" cy="63.833" fill="#007af6" r="16"/><circle cx="256" cy="48" fill="#0094f6" r="8"/><circle cx="108.922" cy="108.922" fill="#007af6" r="24"/><circle cx="108.922" cy="108.922" fill="#0094f6" r="8"/><circle cx="224" cy="200" fill="#0094f6" r="8"/><circle cx="312" cy="280" fill="#0094f6" r="8"/><circle cx="216" cy="296" fill="#0094f6" r="8"/><circle cx="48" cy="256" fill="#007af6" r="24"/><circle cx="48" cy="256" fill="#0094f6" r="8"/><circle cx="108.922" cy="403.078" fill="#007af6" r="24"/><circle cx="108.922" cy="403.078" fill="#0094f6" r="8"/><circle cx="256" cy="464" fill="#007af6" r="24"/><circle cx="256" cy="464" fill="#0094f6" r="8"/><circle cx="403.078" cy="403.078" fill="#007af6" r="24"/><circle cx="403.078" cy="403.078" fill="#0094f6" r="8"/><circle cx="464" cy="256" fill="#007af6" r="24"/><circle cx="464" cy="256" fill="#0094f6" r="8"/><circle cx="403.078" cy="108.922" fill="#007af6" r="24"/><circle cx="403.078" cy="108.922" fill="#0094f6" r="8"/></g></svg>