<svg version="1.1" viewBox="0 0 64 64" xml:space="preserve" xmlns="http://www.w3.org/2000/svg">
  <path d="M54 10c0-3.87-3.13-7-7-7s-7 3.13-7 7c0 .35.03.7.09 1.03 2.19-.95 4.83-.53 6.62 1.26l-1.42 1.42c-1.25-1.25-3.13-1.5-4.62-.74C41.77 15.35 44.19 17 47 17c3.87 0 7-3.13 7-7zM18.928 9.732l1.732-1-2-3.464-1.732 1 .5.866-1.805 1.042C14.724 7.091 13.449 6.334 12 6.09V4h1V2H9v2h1v2.09c-1.449.244-2.724 1.001-3.623 2.086L4.572 7.134l.5-.866-1.732-1-2 3.464 1.732 1 .5-.866 1.81 1.045C5.139 10.563 5 11.264 5 12s.139 1.437.381 2.089l-1.81 1.045-.5-.866-1.732 1 2 3.464 1.732-1-.5-.866 1.805-1.042c.9 1.085 2.175 1.842 3.624 2.086V20H9v2h4v-2h-1v-2.09c1.449-.244 2.724-1.001 3.623-2.086l1.805 1.042-.5.866 1.732 1 2-3.464-1.732-1-.5.866-1.81-1.045c.243-.652.382-1.353.382-2.089s-.139-1.437-.381-2.089l1.81-1.045.499.866zM11 16c-2.209 0-4-1.791-4-4s1.791-4 4-4 4 1.791 4 4-1.791 4-4 4zM30.293 15.293l1.414 1.414L36.414 12l-4.707-4.707-1.414 1.414L32.586 11H25v2h7.586zM21 11h2v2h-2zM56 17H39.479c-3.103 0-5.694 2.366-5.975 5.457L33 28l-8 6 4 5 10-7v-8h2v8h-2v6l-4 24h8l4-24v24h8V24h2v14h5V23c0-3.313-2.687-6-6-6zm-8 16h-2v-2h2v2zm0-4h-2v-8h2v8z" fill="rgba(255,255,255,0.5)"/>
</svg>
