<svg viewBox="0 0 64 64" xmlns="http://www.w3.org/2000/svg"><path d="m54 57.499v-2h-4.283c-.041-.073-.087-.145-.136-.217l2.616-.554-.414-1.957-4.238.897c-.403-.204-.853-.391-1.336-.562l.827-.525-1.072-1.688-2.389 1.517c-.828-.155-1.71-.27-2.633-.337l.058-.014-4-12-10-2v-9.06h7l7-7-2-2v-7.454l10-4.545-10-4.546v-.455h-2v17l-5 5h-9.983c.754-.003 1.468-.171 2.104-.469-1.271-.68-2.121-2-2.121-3.53h2c0 1.1.9 2 2 2 .63-.83 1-1.87 1-3 0-2.76-2.24-5-5-5s-5 2.24-5 5c0 2.757 2.235 4.994 4.991 4.999h-6.991l-5.331 6.138c-1.019 1.172-1.266 2.828-.635 4.247l2.966 6.675 4-2-3-6 4-4v11l-1 19.94h5l2-17.94 11 2 2.643 7.047c-.774.069-1.514.173-2.217.305l-2.39-1.517-1.072 1.688.826.525c-.483.172-.932.359-1.335.562l-4.238-.897-.414 1.957 2.616.554c-.049.072-.096.144-.136.217h-4.283v2h4.282c.041.074.088.146.137.218l-2.616.553.414 1.957 4.239-.896c.403.203.852.39 1.334.561l-.827.524 1.072 1.689 2.392-1.518c1.106.207 2.306.344 3.573.39v1.022h2v-1.021c1.266-.047 2.467-.183 3.572-.39l2.392 1.518 1.072-1.689-.826-.524c.482-.172.931-.358 1.334-.562l4.239.897.414-1.957-2.616-.553c.049-.072.096-.145.137-.218h4.282z" fill="rgba(255,255,255,0.5)"/></svg>